<?xml version="1.0" encoding="UTF-8" standalone="no"?>
<svg
   xmlns:dc="http://purl.org/dc/elements/1.1/"
   xmlns:cc="http://creativecommons.org/ns#"
   xmlns:rdf="http://www.w3.org/1999/02/22-rdf-syntax-ns#"
   xmlns:svg="http://www.w3.org/2000/svg"
   xmlns="http://www.w3.org/2000/svg"
   xmlns:sodipodi="http://sodipodi.sourceforge.net/DTD/sodipodi-0.dtd"
   xmlns:inkscape="http://www.inkscape.org/namespaces/inkscape"
   version="1.0"
   width="221.29138pt"
   height="51.27005pt"
   viewBox="0 0 221.29138 51.27005"
   preserveAspectRatio="xMidYMid meet"
   id="svg2"
   inkscape:version="0.91 r13725"
   sodipodi:docname="Nature_Logo.svg">
  <defs
     id="defs20" />
  <sodipodi:namedview
     pagecolor="#ffffff"
     bordercolor="#666666"
     borderopacity="1"
     objecttolerance="10"
     gridtolerance="10"
     guidetolerance="10"
     inkscape:pageopacity="0"
     inkscape:pageshadow="2"
     inkscape:window-width="928"
     inkscape:window-height="637"
     id="namedview18"
     showgrid="false"
     fit-margin-top="0"
     fit-margin-left="0"
     fit-margin-right="0"
     fit-margin-bottom="0"
     inkscape:zoom="0.51058167"
     inkscape:cx="482.1308"
     inkscape:cy="154.74457"
     inkscape:window-x="262"
     inkscape:window-y="21"
     inkscape:window-maximized="0"
     inkscape:current-layer="svg2" />
  <metadata
     id="metadata4">
Created by potrace 1.12, written by Peter Selinger 2001-2015
<rdf:RDF>
  <cc:Work
     rdf:about="">
    <dc:format>image/svg+xml</dc:format>
    <dc:type
       rdf:resource="http://purl.org/dc/dcmitype/StillImage" />
    <dc:title></dc:title>
  </cc:Work>
</rdf:RDF>
</metadata>
  <g
     transform="matrix(0.02728551,0,0,-0.02821125,-0.00872274,51.344475)"
     id="g6"
     style="fill:#000000;stroke:none">
    <path
       d="m 3551,1751 c -76,-103 -223,-231 -415,-364 -12,-9 -17,-20 -13,-30 5,-14 21,-17 85,-17 123,0 114,48 106,-526 -6,-430 -4,-497 10,-557 27,-116 69,-177 151,-221 34,-18 56,-21 150,-20 95,0 119,4 179,27 126,49 276,157 276,198 0,24 1,24 -89,-7 -89,-31 -202,-42 -254,-25 -50,17 -93,69 -106,131 -7,32 -11,192 -10,438 0,381 8,584 23,599 9,10 408,17 452,8 17,-3 39,-12 50,-19 18,-14 19,-33 19,-528 0,-505 0,-514 22,-571 40,-106 120,-188 225,-230 78,-31 259,-31 339,1 78,31 166,87 255,160 44,38 81,61 90,58 11,-4 14,-30 14,-126 0,-100 3,-122 16,-127 8,-3 70,13 137,35 67,22 190,57 272,77 83,20 153,42 157,48 16,26 -14,35 -103,34 -83,-1 -91,1 -115,24 -22,23 -26,37 -35,150 -11,126 -7,399 12,853 9,212 8,241 -6,263 l -16,24 -257,-6 c -285,-7 -318,-10 -325,-29 -10,-26 11,-36 107,-50 54,-8 108,-21 120,-30 39,-25 47,-82 53,-401 6,-324 -6,-536 -33,-605 -21,-52 -91,-113 -163,-142 -82,-32 -235,-32 -306,0 -61,28 -90,55 -118,107 -22,40 -22,46 -22,592 0,426 -3,555 -12,564 -10,10 -82,10 -350,1 -464,-17 -470,-17 -478,8 -4,11 -3,77 1,145 7,127 1,155 -31,155 -7,0 -35,-31 -64,-69 z"
       id="path8"
       inkscape:connector-curvature="0" />
    <path
       d="m 2338,1570 c -221,-38 -416,-170 -503,-341 -47,-92 -45,-158 6,-185 39,-19 87,-12 145,21 43,25 59,51 89,145 41,129 109,221 193,262 59,29 179,31 229,5 78,-42 98,-117 90,-339 -6,-175 -21,-228 -73,-265 C 2498,862 2406,813 2310,765 2028,624 1924,546 1864,428 1789,280 1844,99 1984,34 c 68,-32 189,-33 278,-3 98,33 214,118 263,193 10,14 22,26 29,26 6,0 22,-25 35,-56 79,-182 319,-218 492,-74 49,40 99,117 99,152 0,35 -19,36 -57,4 -95,-79 -198,-81 -240,-4 -22,40 -23,179 -9,733 9,338 8,352 -11,395 -25,56 -69,102 -128,130 -86,42 -274,61 -397,40 z m 218,-815 c 14,-22 16,-43 10,-148 -12,-209 -39,-290 -123,-368 -57,-54 -108,-73 -169,-66 -138,15 -201,165 -130,307 47,95 164,201 294,266 80,41 96,42 118,9 z"
       id="path10"
       inkscape:connector-curvature="0" />
    <path
       d="m 7427,1570 c -82,-13 -217,-62 -283,-101 -182,-110 -309,-282 -365,-494 -30,-114 -31,-306 -1,-427 84,-343 367,-554 717,-535 118,6 208,34 322,99 132,74 307,258 289,303 -9,24 -22,18 -86,-39 -123,-110 -222,-149 -380,-150 -222,-1 -378,92 -465,276 -52,109 -66,177 -72,330 l -6,136 26,26 c 25,25 31,26 134,26 59,0 255,-5 435,-11 433,-16 427,-18 415,128 -14,178 -179,356 -387,417 -68,20 -215,28 -293,16 z m 212,-86 c 98,-29 170,-127 158,-216 -10,-71 -74,-118 -201,-145 -97,-21 -378,-23 -425,-4 -32,14 -33,16 -29,61 9,88 89,208 174,261 90,55 223,73 323,43 z"
       id="path12"
       inkscape:connector-curvature="0" />
    <path
       d="m 432,1506 c -109,-89 -212,-154 -302,-191 -56,-24 -75,-37 -75,-51 0,-15 12,-21 60,-30 75,-13 103,-28 118,-62 15,-36 22,-707 8,-858 C 226,150 220,142 93,110 13,90 -6,79 2,58 7,47 82,45 396,45 c 380,0 389,0 389,20 0,15 -16,25 -74,46 -92,34 -117,58 -132,123 -16,73 -24,585 -11,729 16,165 35,227 90,288 81,90 184,127 310,109 126,-17 206,-81 240,-190 15,-48 17,-108 17,-500 0,-412 -1,-448 -18,-482 -21,-42 -71,-71 -152,-88 -61,-13 -80,-24 -73,-42 8,-19 770,-20 790,0 18,18 1,30 -83,53 -78,22 -105,39 -122,79 -7,16 -13,200 -17,525 -6,479 -7,503 -28,566 -38,115 -123,201 -251,251 -80,31 -260,32 -345,0 -85,-31 -151,-74 -245,-159 -46,-41 -88,-72 -94,-70 -8,2 -14,45 -17,123 -3,65 -9,125 -13,132 -16,24 -46,11 -125,-52 z"
       id="path14"
       inkscape:connector-curvature="0" />
    <path
       d="m 6130,1525 c -73,-65 -191,-143 -305,-200 -55,-28 -100,-57 -100,-65 0,-9 21,-18 60,-26 33,-6 68,-15 78,-19 57,-24 71,-150 64,-600 -3,-192 -10,-367 -15,-388 -15,-58 -47,-85 -127,-108 -98,-28 -115,-36 -115,-54 0,-8 3,-15 8,-16 4,-1 202,-2 440,-3 347,-1 436,1 444,12 18,21 -2,32 -99,51 -121,25 -177,51 -200,93 -16,30 -18,67 -21,387 -3,342 4,498 29,585 6,21 29,58 52,83 41,44 42,45 94,41 41,-4 61,-12 91,-36 68,-59 110,-84 150,-89 75,-10 161,37 188,104 31,73 9,178 -48,229 -49,45 -87,57 -168,52 -103,-6 -158,-37 -275,-157 -53,-54 -98,-91 -104,-87 -7,5 -11,47 -11,116 0,59 -3,115 -6,124 -11,29 -52,17 -104,-29 z"
       id="path16"
       inkscape:connector-curvature="0" />
  </g>
</svg>
